<svg id="f8354565-a1df-42d0-a501-a7253bc2c078" data-name="Layer 1" xmlns="http://www.w3.org/2000/svg" viewBox="0 0 48 48"><path d="M35.16,32.82c1.33,1.18,1.62.68,2.75-.69a10.18,10.18,0,0,0,1.4-2.3A23.39,23.39,0,0,0,41,23.56a17.21,17.21,0,0,0-.36-7.45A15.65,15.65,0,0,0,23.89,4.93,15.35,15.35,0,0,0,11.6,13.84a14.87,14.87,0,0,0-1.37,8.62,28.16,28.16,0,0,0,1.64,7,8,8,0,0,0,1.8,2.94c1.11,1,1.14,1.41,2.27.39.05,0-.69-4-.69-4s6.81.63,9.78-1.64c3.95,2.47,10.36,1.64,10.36,1.64S35.13,32.79,35.16,32.82Z" fill="#eff8f7"/><path d="M44.63,48.5a.51.51,0,0,1-.34-.14c-2.52-2.4-5.29-4-7.41-4.17-5.58-.57-7.79-5.76-8.31-7.23a16.71,16.71,0,0,1-3.17,1.83,4.14,4.14,0,0,1-3.6-.06,17.22,17.22,0,0,1-2.59-1.48c-.66,1.76-2.88,6.36-8.14,6.9-2.08.21-4.81,1.75-7.3,4.11a.5.5,0,0,1-.71,0,.49.49,0,0,1,0-.7C5.76,45,8.64,43.39,11,43.15c5.12-.52,7-5.26,7.41-6.53a11.4,11.4,0,0,1-3-3.7,2.87,2.87,0,0,1-2.59.69,1.27,1.27,0,0,1-.71-.25L12,33.27a3.76,3.76,0,0,1-.65-.5A8.36,8.36,0,0,1,9.4,29.65a28.69,28.69,0,0,1-1.67-7.13,15.39,15.39,0,0,1,1.43-8.9A15.76,15.76,0,0,1,21.83,4.43,16.16,16.16,0,0,1,39.13,16a17.51,17.51,0,0,1,.37,7.67A23.82,23.82,0,0,1,37.76,30a10.76,10.76,0,0,1-1.46,2.41,3.72,3.72,0,0,1-1.19,1,1.28,1.28,0,0,1-.79.24l-.15,0a3.19,3.19,0,0,1-2.33-.92c-.06.13-.11.31-.15.42a2.9,2.9,0,0,1-.31.75,11.23,11.23,0,0,1-2,2.33s0,0,0,0,1.79,6.3,7.57,6.88c2.37.24,5.28,1.86,8,4.45a.49.49,0,0,1,0,.7A.49.49,0,0,1,44.63,48.5ZM19.3,36.08a16.33,16.33,0,0,0,2.93,1.75,3.15,3.15,0,0,0,2.76.05,12.15,12.15,0,0,0,5.55-4.47,2.51,2.51,0,0,0,.19-.5c.15-.48.35-1.13,1-1.25a.66.66,0,0,1,.66.31l-.32.39.33-.38.08.07.18-.73c.16-.65.33-1.31.48-2a17.85,17.85,0,0,1-6.69-.06,2.42,2.42,0,0,1-.7-.13,2.28,2.28,0,0,0-.36-.1.61.61,0,0,1-.21-.11L23.84,27.8a1.82,1.82,0,0,0-1.48,0L20.82,29l-.09.05a3.17,3.17,0,0,1-1.17.27,19.76,19.76,0,0,1-5.69.14c.18.85.4,1.67.62,2.43,0,0,0,.08,0,.11a.94.94,0,0,1,.09.27l.21-.17a.75.75,0,0,1,.78-.43.67.67,0,0,1,.54.6A10.22,10.22,0,0,0,19.21,36,.35.35,0,0,1,19.3,36.08Zm9.36-18a5.62,5.62,0,0,1,5.63,4.35,13.44,13.44,0,0,1,.17,5.65c-.22,1.16-.51,2.33-.79,3.45l-.21.83a1.6,1.6,0,0,0,.79.29,1.71,1.71,0,0,0,.3-.09.65.65,0,0,1,.22-.11,3,3,0,0,0,.76-.66,9.84,9.84,0,0,0,1.32-2.2,22.26,22.26,0,0,0,1.66-6.13,16.49,16.49,0,0,0-.34-7.24A15.15,15.15,0,0,0,22,5.42c-5.36.67-9.36,3.58-11.9,8.65A14.37,14.37,0,0,0,8.73,22.4a27.35,27.35,0,0,0,1.6,6.89A7.49,7.49,0,0,0,12,32a2.39,2.39,0,0,0,.89.57,1.77,1.77,0,0,0,.72-.2s0,0,0-.06a1.8,1.8,0,0,1-.08-.21,21.14,21.14,0,0,1-1-8.55c.46-3.71,3.12-5.84,6.78-5.4l1.07.14a14.53,14.53,0,0,0,2.5.23c1.56,0,3.16-.2,4.7-.37l.27,0A7.11,7.11,0,0,1,28.66,18.11Zm-2.89,10,.32.09a5.6,5.6,0,0,0,.57.11,17.43,17.43,0,0,0,6.62,0l.12,0c0-.12.05-.24.07-.36a12.45,12.45,0,0,0-.15-5.23A4.71,4.71,0,0,0,28,19.15l-.27,0a47.54,47.54,0,0,1-4.8.38,14.43,14.43,0,0,1-2.65-.24l-1.05-.14c-3.1-.37-5.27,1.37-5.67,4.54a16,16,0,0,0,.13,4.66,18.26,18.26,0,0,0,5.74-.08,2.76,2.76,0,0,0,.84-.16L21.8,27l.09,0a2.8,2.8,0,0,1,2.43,0l.1.07Z" fill="#0d425d"/></svg>